<svg xmlns="http://www.w3.org/2000/svg" aria-hidden="true" style="position:absolute;width:0;height:0;overflow:hidden"><defs><symbol id="icon-clock" viewBox="0 0 32 32"><path fill="none" stroke="#fff" stroke-linecap="round" stroke-linejoin="round" stroke-width="2.286" d="M5.301 6.405a14.337 14.337 0 0 0-3.667 9.429v.009c-.091 7.965 6.415 14.498 14.367 14.525 7.952.013 14.367-6.427 14.367-14.367 0-7.82-6.256-14.196-14.038-14.367-.039 0-.092 0-.131.026a.284.284 0 0 0-.105.066h0c-.026.026-.052.066-.079.105a.392.392 0 0 0-.026.132v6.256" style="stroke:var(--color1, #fff)"/><path fill="#fff" d="M14.318 17.682 8.403 9.23a.558.558 0 0 1-.105-.411v.003a.6.6 0 0 1 .171-.381.614.614 0 0 1 .778-.064l-.002-.001 8.451 5.914c.506.368.861.917.971 1.55l.002.014a2.424 2.424 0 0 1-.412 1.808l.005-.008a2.423 2.423 0 0 1-3.36.613l.008.005a2.311 2.311 0 0 1-.587-.584l-.005-.008z" style="fill:var(--color1, #fff)"/></symbol><symbol id="icon-cloud-gray1" viewBox="0 0 51 32"><path fill="#bbb" d="M23.307 2.391c.771-.78 2.582-.78 3.352 0 .646.653 2.078.782 2.992.269 1.09-.612 2.827-.292 3.217.592.326.741 1.642 1.117 2.75.786 1.322-.395 2.845.218 2.82 1.135-.02.769 1.073 1.362 2.284 1.24 1.446-.146 2.631.712 2.196 1.587-.365.734.417 1.496 1.634 1.593 1.452.116 2.204 1.147 1.393 1.911-.68.64-.273 1.509.852 1.817 1.342.367 1.599 1.49.477 2.079-.941.494-.941 1.4 0 1.894 1.122.589.864 1.712-.477 2.079-1.124.308-1.532 1.178-.852 1.817.812.763.06 1.795-1.393 1.91-1.217.097-1.999.859-1.634 1.593.436.875-.75 1.733-2.196 1.587-1.211-.122-2.304.472-2.284 1.24.025.917-1.498 1.53-2.82 1.135-1.108-.331-2.423.046-2.75.787-.389.884-2.126 1.204-3.217.591-.914-.513-2.346-.384-2.992.27-.771.78-2.582.78-3.352 0-.646-.654-2.078-.783-2.992-.27-1.09.612-2.827.293-3.217-.591-.326-.741-1.642-1.118-2.75-.787-1.321.395-2.844-.218-2.82-1.135.02-.769-1.073-1.362-2.285-1.24-1.445.145-2.631-.712-2.195-1.588.365-.734-.417-1.496-1.634-1.593-1.452-.116-2.205-1.147-1.393-1.911.68-.639.273-1.509-.851-1.817-1.342-.367-1.599-1.49-.477-2.079.94-.494.94-1.4 0-1.894-1.122-.589-.865-1.712.477-2.079 1.125-.308 1.532-1.177.852-1.817-.812-.763-.06-1.795 1.393-1.911 1.217-.097 1.999-.859 1.634-1.593-.435-.876.75-1.733 2.195-1.587 1.212.122 2.305-.471 2.285-1.24-.024-.917 1.498-1.53 2.82-1.135 1.108.33 2.423-.046 2.75-.787.389-.884 2.126-1.204 3.217-.592.914.513 2.346.384 2.992-.269z" style="fill:var(--color2, #bbb)"/><path fill="#292e36" d="M24.418 1.695c.771-.78 2.582-.78 3.352 0 .646.654 2.078.782 2.992.27 1.09-.612 2.827-.292 3.217.592.326.741 1.642 1.118 2.75.787 1.321-.395 2.844.218 2.82 1.135-.02.769 1.073 1.362 2.284 1.24 1.446-.145 2.631.712 2.196 1.588-.365.734.417 1.496 1.634 1.593 1.452.116 2.204 1.147 1.393 1.911-.68.639-.273 1.509.852 1.817 1.341.367 1.599 1.49.477 2.079-.94.494-.94 1.4 0 1.894 1.122.589.864 1.712-.477 2.079-1.124.308-1.532 1.177-.852 1.817.812.763.06 1.795-1.393 1.91-1.218.097-1.999.859-1.634 1.593.436.876-.75 1.733-2.196 1.587-1.211-.122-2.304.472-2.284 1.24.024.917-1.499 1.53-2.82 1.135-1.108-.331-2.423.046-2.75.787-.389.884-2.126 1.204-3.217.591-.914-.513-2.346-.384-2.992.27-.771.779-2.582.779-3.352 0-.646-.654-2.078-.783-2.992-.27-1.09.612-2.828.293-3.217-.591-.326-.741-1.642-1.118-2.75-.787-1.322.394-2.844-.218-2.82-1.135.02-.769-1.073-1.362-2.284-1.24-1.445.146-2.631-.712-2.195-1.587.365-.734-.417-1.496-1.634-1.593-1.452-.116-2.204-1.147-1.393-1.911.68-.64.273-1.509-.852-1.817-1.342-.367-1.599-1.49-.477-2.079.94-.494.94-1.4 0-1.894-1.122-.589-.865-1.712.477-2.079 1.124-.308 1.532-1.178.852-1.817-.812-.763-.06-1.795 1.393-1.91 1.217-.097 1.999-.859 1.634-1.593-.435-.876.75-1.733 2.195-1.588 1.211.122 2.305-.471 2.284-1.24-.024-.917 1.499-1.53 2.82-1.135 1.108.331 2.423-.046 2.75-.787.389-.884 2.126-1.204 3.217-.592.914.513 2.346.384 2.992-.27z" style="fill:var(--color3, #292e36)"/></symbol><symbol id="icon-cloud-white1" viewBox="0 0 51 32"><path fill="#82b4b4" d="M23.447 2.391c.776-.78 2.597-.78 3.373 0 .65.653 2.09.782 3.01.269 1.097-.612 2.844-.292 3.236.592.328.741 1.652 1.117 2.766.786 1.33-.395 2.862.218 2.837 1.135-.02.769 1.079 1.362 2.298 1.24 1.454-.146 2.647.712 2.209 1.587-.367.734.419 1.496 1.644 1.593 1.461.116 2.218 1.147 1.401 1.911-.684.64-.274 1.509.857 1.817 1.35.367 1.609 1.49.48 2.079-.946.494-.946 1.4 0 1.894 1.129.589.87 1.712-.48 2.079-1.131.308-1.541 1.178-.857 1.817.817.763.06 1.795-1.401 1.91-1.225.097-2.011.859-1.644 1.593.438.875-.754 1.733-2.209 1.587-1.219-.122-2.318.472-2.298 1.24.025.917-1.508 1.53-2.837 1.135-1.114-.331-2.438.046-2.766.787-.392.884-2.139 1.204-3.236.591-.92-.513-2.36-.384-3.01.27-.775.78-2.597.78-3.372 0-.65-.654-2.091-.783-3.01-.27-1.097.612-2.844.293-3.236-.591-.328-.741-1.652-1.118-2.766-.787-1.329.395-2.862-.218-2.837-1.135.02-.769-1.08-1.362-2.298-1.24-1.454.145-2.647-.712-2.209-1.588.367-.734-.419-1.496-1.644-1.593-1.461-.116-2.218-1.147-1.401-1.911.684-.639.274-1.509-.857-1.817-1.35-.367-1.609-1.49-.48-2.079.946-.494.946-1.4 0-1.894-1.129-.589-.87-1.712.48-2.079 1.131-.308 1.541-1.177.857-1.817-.817-.763-.06-1.795 1.401-1.911 1.225-.097 2.011-.859 1.644-1.593-.438-.876.755-1.733 2.209-1.587 1.219.122 2.318-.471 2.298-1.24-.025-.917 1.508-1.53 2.837-1.135 1.114.33 2.438-.046 2.766-.787.392-.884 2.139-1.204 3.236-.592.919.513 2.36.384 3.01-.269z" style="fill:var(--color4, #82b4b4)"/><path fill="#fff" d="M24.565 1.695c.775-.78 2.597-.78 3.372 0 .65.654 2.091.782 3.01.27 1.097-.612 2.844-.292 3.236.592.328.741 1.652 1.118 2.766.787 1.329-.395 2.862.218 2.837 1.135-.02.769 1.079 1.362 2.298 1.24 1.454-.145 2.647.712 2.209 1.588-.367.734.419 1.496 1.644 1.593 1.461.116 2.218 1.147 1.401 1.911-.684.639-.274 1.509.857 1.817 1.349.367 1.609 1.49.48 2.079-.946.494-.946 1.4 0 1.894 1.129.589.869 1.712-.48 2.079-1.131.308-1.541 1.177-.857 1.817.817.763.06 1.795-1.401 1.91-1.225.097-2.011.859-1.644 1.593.438.876-.754 1.733-2.209 1.587-1.219-.122-2.318.472-2.298 1.24.025.917-1.508 1.53-2.837 1.135-1.114-.331-2.438.046-2.766.787-.392.884-2.139 1.204-3.236.591-.919-.513-2.36-.384-3.01.27-.776.779-2.597.779-3.373 0-.65-.654-2.09-.783-3.01-.27-1.097.612-2.844.293-3.236-.591-.328-.741-1.652-1.118-2.766-.787-1.329.394-2.862-.218-2.837-1.135.02-.769-1.079-1.362-2.298-1.24-1.454.146-2.646-.712-2.208-1.587.367-.734-.42-1.496-1.644-1.593-1.461-.116-2.218-1.147-1.401-1.911.685-.64.274-1.509-.857-1.817-1.35-.367-1.609-1.49-.48-2.079.946-.494.946-1.4 0-1.894-1.129-.589-.87-1.712.48-2.079 1.131-.308 1.541-1.178.857-1.817-.816-.763-.06-1.795 1.401-1.91 1.225-.097 2.011-.859 1.644-1.593-.438-.876.754-1.733 2.209-1.588 1.218.122 2.318-.471 2.298-1.24-.025-.917 1.508-1.53 2.837-1.135 1.114.331 2.438-.046 2.766-.787.392-.884 2.139-1.204 3.236-.592.92.513 2.36.384 3.01-.27z" style="fill:var(--color1, #fff)"/></symbol><symbol id="icon-delivery" viewBox="0 0 32 32"><path d="M32 0H0v32h32V0z"/></symbol><symbol id="icon-hero-stamp" viewBox="0 0 32 32"><path d="M32 0H0v32h32V0z"/></symbol><symbol id="icon-facebook" viewBox="0 0 33 32"><path fill="#fff" d="M32.87 15.826C32.87 7.086 25.51 0 16.435 0 7.361 0 .001 7.086.001 15.826c0 7.898 6.009 14.446 13.867 15.634V20.402H9.694v-4.576h4.174v-3.487c0-3.965 2.454-6.158 6.208-6.158 1.798 0 3.679.309 3.679.309v3.896h-2.073c-2.04 0-2.678 1.219-2.678 2.472v2.968h4.557l-.728 4.577h-3.829v11.058c7.858-1.187 13.867-7.736 13.867-15.635z" style="fill:var(--color1, #fff)"/></symbol><symbol id="icon-twitter" viewBox="0 0 40 32"><path fill="#fff" d="M38.81 3.657a16.23 16.23 0 0 1-4.544 1.228A7.876 7.876 0 0 0 37.732.634l.016-.055A15.577 15.577 0 0 1 32.82 2.45l-.101.017A7.946 7.946 0 0 0 26.955 0h-.015.001c-4.373 0-7.912 3.488-7.912 7.787a7.52 7.52 0 0 0 .204 1.775A22.54 22.54 0 0 1 2.95 1.458l-.029-.036a7.605 7.605 0 0 0-1.076 3.914c0 2.699 1.408 5.086 3.535 6.484a7.801 7.801 0 0 1-3.637-.991l.04.02v.096c0 3.778 2.732 6.918 6.348 7.634a8.021 8.021 0 0 1-2.085.274c-.5 0-.998-.049-1.487-.145 1.006 3.093 3.931 5.342 7.397 5.408a15.931 15.931 0 0 1-9.794 3.337 16.15 16.15 0 0 1-2.003-.124l.078.008c3.41 2.208 7.578 3.52 12.053 3.52h.065-.003c14.572 0 22.534-11.869 22.534-22.162 0-.338-.008-.675-.024-1.006a16.097 16.097 0 0 0 3.912-3.979l.035-.054z" style="fill:var(--color1, #fff)"/></symbol><symbol id="icon-pinterst" viewBox="0 0 33 32"><path fill="#fff" d="M16.42 0C7.583 0 .417 7.163.417 15.996c0 6.549 3.943 12.176 9.58 14.653-.043-1.113-.007-2.456.279-3.669l2.057-8.72s-.515-1.021-.515-2.528c0-2.371 1.373-4.141 3.087-4.141 1.457 0 2.157 1.093 2.157 2.4 0 1.463-.936 3.648-1.413 5.676-.4 1.7.849 3.079 2.528 3.079 3.029 0 5.073-3.893 5.073-8.507 0-3.505-2.365-6.127-6.659-6.127-4.852 0-7.88 3.621-7.88 7.663 0 1.393.413 2.379 1.057 3.135.293.351.335.493.228.893-.079.293-.251 1-.328 1.285-.107.407-.436.549-.8.4-2.237-.913-3.28-3.356-3.28-6.113 0-4.541 3.836-9.991 11.439-9.991 6.108 0 10.131 4.421 10.131 9.163 0 6.277-3.493 10.961-8.639 10.961-1.728 0-3.351-.935-3.907-1.992 0 0-.929 3.685-1.129 4.4-.336 1.235-1 2.463-1.608 3.427 1.358.416 2.919.656 4.537.657h.001c8.837 0 16.003-7.163 16.003-15.996C32.417 7.169 25.259 0 16.421 0z" style="fill:var(--color1, #fff)"/></symbol><symbol id="icon-instagram" viewBox="0 0 33 32"><path fill="#fff" d="M23.282 2.638h.001c1.876 0 3.58.738 4.838 1.939l-.003-.003A6.478 6.478 0 0 1 30.13 9.23v13.189a6.479 6.479 0 0 1-2.009 4.656l-.003.002a6.979 6.979 0 0 1-4.835 1.937H9.586a6.984 6.984 0 0 1-4.838-1.939l.003.003a6.478 6.478 0 0 1-2.012-4.656V9.233a6.479 6.479 0 0 1 2.009-4.656l.003-.002a6.983 6.983 0 0 1 4.835-1.937h13.695zm0-2.638H9.587C4.313 0 0 4.154 0 9.233V22.42c0 5.078 4.313 9.233 9.586 9.233h13.696c5.273 0 9.587-4.154 9.587-9.233V9.233C32.869 4.155 28.556 0 23.283 0z" style="fill:var(--color1, #fff)"/><path fill="#fff" d="M25.336 9.233c-.405 0-.803-.117-1.141-.334a2.007 2.007 0 0 1-.75-.875l-.005-.013a1.875 1.875 0 0 1-.156-.757c0-.137.014-.27.042-.399l-.002.013c.078-.383.274-.736.562-1.013a2.09 2.09 0 0 1 1.452-.579c.283 0 .554.055.801.156l-.014-.005c.376.15.696.403.922.729a1.922 1.922 0 0 1-.253 2.498l-.001.001a2.07 2.07 0 0 1-.654.424l-.014.005c-.249.1-.516.15-.786.15zm-8.902 1.317c1.085 0 2.143.31 3.044.89a5.352 5.352 0 0 1 2.004 2.333l.013.034c.416.964.523 2.024.313 3.047a5.227 5.227 0 0 1-1.498 2.7l-.002.002A5.543 5.543 0 0 1 17.503 21a5.665 5.665 0 0 1-3.204-.315l.038.014a5.477 5.477 0 0 1-2.448-1.925l-.011-.017a5.094 5.094 0 0 1-.922-2.931 5.169 5.169 0 0 1 1.604-3.727l.002-.002a5.57 5.57 0 0 1 3.862-1.547h.012-.001zm0-2.636h-.01a8.407 8.407 0 0 0-4.587 1.353l.033-.02a8.044 8.044 0 0 0-3.009 3.502l-.02.051a7.52 7.52 0 0 0-.625 3.027c0 .547.057 1.08.167 1.595l-.009-.05a7.84 7.84 0 0 0 2.246 4.049l.003.003a8.292 8.292 0 0 0 4.155 2.156l.052.009a8.28 8.28 0 0 0 1.604.153 8.494 8.494 0 0 0 3.201-.622l-.057.02a8.217 8.217 0 0 0 3.67-2.889l.017-.026a7.644 7.644 0 0 0 1.386-4.396v-.001a7.746 7.746 0 0 0-2.404-5.593l-.003-.003a8.35 8.35 0 0 0-5.784-2.317h-.029.001z" style="fill:var(--color1, #fff)"/></symbol><symbol id="icon-location" viewBox="0 0 32 32"><path d="M32 0H0v32h32V0z"/></symbol><symbol id="icon-logo-header" viewBox="0 0 64 32"><path fill="#e1b168" d="M32.17 27.016c-5.787 0-10.499-4.71-10.499-10.503S26.383 6.014 32.17 6.014s10.499 4.71 10.499 10.503-4.712 10.5-10.499 10.5zm0-20.667c-5.603 0-10.164 4.559-10.164 10.168s4.561 10.164 10.164 10.164 10.164-4.559 10.164-10.168S37.773 6.349 32.17 6.349z" style="fill:var(--color5, #e1b168)"/><path fill="#e1b168" d="M32.17 29.028a12.738 12.738 0 0 1-2.602-.269l.082.014a12.374 12.374 0 0 1-2.43-.758l.081.031a12.645 12.645 0 0 1-2.168-1.181l.044.028a12.463 12.463 0 0 1-1.85-1.529 12.87 12.87 0 0 1-1.5-1.807l-.028-.044a.145.145 0 0 1 .241-.161 12.309 12.309 0 0 0 3.259 3.275l.042.027c.596.41 1.278.787 1.996 1.096l.078.03c.651.284 1.417.529 2.213.697l.079.014c1.608.328 3.314.328 4.926 0a12.153 12.153 0 0 0 2.371-.741l-.079.03a12.27 12.27 0 0 0 3.884-2.618 12.103 12.103 0 0 0 1.464-1.768l.027-.042a.145.145 0 0 1 .241.161v-.001a12.733 12.733 0 0 1-3.334 3.351l-.043.028c-.611.42-1.309.806-2.045 1.123l-.08.031c-.667.291-1.453.542-2.268.713l-.081.014c-.757.161-1.628.254-2.52.255zM42.421 9.745a.152.152 0 0 1-.12-.063c-.46-.677-.95-1.269-1.491-1.81a12.166 12.166 0 0 0-1.767-1.465l-.042-.027a11.761 11.761 0 0 0-1.996-1.096l-.078-.03a11.653 11.653 0 0 0-2.213-.697l-.079-.014a12.416 12.416 0 0 0-4.926 0 12.06 12.06 0 0 0-2.371.741l.079-.03A12.34 12.34 0 0 0 25.3 6.408l.043-.028a12.338 12.338 0 0 0-3.274 3.26l-.027.042a.145.145 0 0 1-.202.039h.001a.145.145 0 0 1-.039-.202v.001c.471-.692.973-1.297 1.528-1.85a12.85 12.85 0 0 1 1.806-1.5l.043-.028a12.472 12.472 0 0 1 2.125-1.153c.666-.29 1.451-.542 2.266-.716l.083-.015c.758-.161 1.628-.254 2.52-.254s1.762.092 2.602.268l-.082-.014c.895.185 1.681.437 2.428.761l-.079-.031a12.484 12.484 0 0 1 3.974 2.681 12.87 12.87 0 0 1 1.5 1.807l.028.044a.145.145 0 0 1-.04.2h-.001a.167.167 0 0 1-.08.024z" style="fill:var(--color5, #e1b168)"/><path fill="#e1b168" d="M32.676 20.251a5.247 5.247 0 0 1-2.182-.476 3.787 3.787 0 0 1-1.63.362h-.006a3.911 3.911 0 0 1-3.904-3.906 3.91 3.91 0 0 1 3.063-3.812 5.286 5.286 0 0 1 4.658-2.776 5.292 5.292 0 0 1 5.281 4.941 3.011 3.011 0 0 1 1.424 2.551 3.007 3.007 0 0 1-3.003 3.004 2.98 2.98 0 0 1-1.486-.397l.015.008a5.13 5.13 0 0 1-2.225.5h-.008zm-2.181-.845.074.034c1.364.64 2.929.63 4.279-.03l.081-.04.077.047c.393.241.868.384 1.377.385a2.67 2.67 0 0 0 2.667-2.668c0-.949-.513-1.834-1.337-2.31l-.08-.047-.003-.091a4.959 4.959 0 0 0-9.353-2.045l-.037.07-.077.017a3.581 3.581 0 0 0-2.872 3.5 3.574 3.574 0 0 0 3.569 3.57 3.58 3.58 0 0 0 1.562-.362l.074-.03z" style="fill:var(--color5, #e1b168)"/><path fill="#e1b168" d="M36.101 23.382H28.24v-3.627l.188.023c.164.02.302.03.432.03a3.58 3.58 0 0 0 1.562-.362l.074-.04.074.033c1.364.64 2.929.63 4.279-.03l.081-.04.077.047c.275.167.596.289.939.346l.016.002.141.023v3.594zm-7.527-.335h7.191V20.07a2.973 2.973 0 0 1-.869-.329l.014.008a5.268 5.268 0 0 1-4.417.03 3.787 3.787 0 0 1-1.63.362h-.006c-.091 0-.184-.003-.285-.013v2.92zm.262-7.962h-.002a.166.166 0 0 1-.166-.166v-.002a3.964 3.964 0 0 1 3.958-3.959c.094 0 .167.074.167.168v.002a.166.166 0 0 1-.166.166h-.002a3.628 3.628 0 0 0-3.623 3.624v.002a.166.166 0 0 1-.166.166h-.002zm35.337-3.094H41.568a.166.166 0 0 1-.166-.166v-.002c0-.094.074-.168.167-.168h22.603c.094 0 .168.074.168.168v.002a.166.166 0 0 1-.166.166h-.002zm0 9.383H41.568a.166.166 0 0 1-.166-.166v-.002c0-.094.074-.168.167-.168h22.603c.094 0 .168.074.168.168v.002a.166.166 0 0 1-.166.166h-.002zm-41.402-9.383H.166A.166.166 0 0 1 0 11.825v-.002c0-.094.074-.168.168-.168h22.603c.094 0 .168.074.168.168a.169.169 0 0 1-.167.168zm0 9.383H.166A.166.166 0 0 1 0 21.208v-.002c0-.094.074-.168.168-.168h22.603c.094 0 .168.074.168.168a.169.169 0 0 1-.167.168zm-9.983-4.033H6.991a.83.83 0 0 1-.828-.828.83.83 0 0 1 .828-.828h6.253c.094 0 .168.074.168.168v.002a.166.166 0 0 1-.166.166H6.991a.494.494 0 0 0 0 .986h5.794c.094 0 .168.074.168.168v.003a.164.164 0 0 1-.164.165z" style="fill:var(--color5, #e1b168)"/><path fill="#e1b168" d="M3.304 18.88C1.545 18.88.11 17.821.11 16.517s1.431-2.363 3.194-2.363c1.759 0 3.194 1.059 3.194 2.363S5.067 18.88 3.304 18.88zm0-4.395c-1.575 0-2.859.912-2.859 2.028s1.283 2.028 2.859 2.028c1.575 0 2.858-.912 2.858-2.028s-1.28-2.028-2.858-2.028zm53.674 2.856H51.182a.166.166 0 0 1-.166-.166v-.002c0-.094.074-.168.168-.168h5.794a.494.494 0 0 0 0-.986h-6.255a.166.166 0 0 1-.166-.166v-.002c0-.094.074-.168.168-.168h6.253a.83.83 0 0 1 .828.828.83.83 0 0 1-.827.828z" style="fill:var(--color5, #e1b168)"/><path fill="#e1b168" d="M60.158 18.082h-1.119c-.864 0-1.568-.704-1.568-1.569s.704-1.569 1.568-1.569h1.119v3.138zm-1.119-2.799a1.234 1.234 0 0 0 0 2.468h.784v-2.464h-.784v-.003z" style="fill:var(--color5, #e1b168)"/><path fill="#e1b168" d="M63.69 15.283h-3.698a.166.166 0 0 1-.166-.166v-.002c0-.094.074-.168.167-.168h3.696c.094 0 .167.074.167.168a.169.169 0 0 1-.167.168zm0 1.398h-3.698a.166.166 0 0 1-.166-.166v-.002c0-.094.074-.168.167-.168h3.696c.094 0 .167.074.167.168a.169.169 0 0 1-.167.168zm0 1.401h-3.698a.166.166 0 0 1-.166-.166v-.002c0-.094.074-.168.167-.168h3.696c.094 0 .167.074.167.168a.169.169 0 0 1-.167.168zm-41.824.798H18.935a.166.166 0 0 1-.166-.166v-.002c0-.094.074-.168.168-.168h2.929c.094 0 .168.074.168.168v.002a.166.166 0 0 1-.166.166h-.002zm-.144-2.497h-5.561a.166.166 0 0 1-.166-.166v-.002c0-.094.074-.168.168-.168h5.559c.094 0 .168.074.168.168v.002a.166.166 0 0 1-.166.166h-.002zm.368-2.498H19.159a.166.166 0 0 1-.166-.166v-.002c0-.094.074-.168.168-.168h2.929c.094 0 .168.074.168.168v.002a.166.166 0 0 1-.166.166h-.002zm-.228 3.745H17.51a.166.166 0 0 1-.166-.166v-.002c0-.094.074-.168.168-.168h4.35c.094 0 .168.074.168.168a.169.169 0 0 1-.168.168zm-.023-2.514H17.487a.166.166 0 0 1-.166-.166v-.002c0-.094.074-.168.168-.168h4.35c.094 0 .168.074.168.168v.002a.166.166 0 0 1-.166.166h-.002zm23.561-.932H42.469a.166.166 0 0 1-.166-.166v-.002c0-.094.074-.168.167-.168h2.929c.094 0 .168.074.168.168v.002a.166.166 0 0 1-.166.166h-.002zm2.778 2.497h-5.561a.166.166 0 0 1-.166-.166v-.002c0-.094.074-.168.168-.168h5.559c.094 0 .168.074.168.168v.002a.166.166 0 0 1-.166.166h-.002zm-3.002 2.498H42.245a.166.166 0 0 1-.166-.166v-.002c0-.094.074-.168.167-.168h2.929c.094 0 .168.074.168.168v.002a.166.166 0 0 1-.166.166h-.002zm1.652-3.745H42.476a.166.166 0 0 1-.166-.166v-.002c0-.094.074-.168.168-.168h4.35c.094 0 .167.074.167.168v.002a.166.166 0 0 1-.166.166h-.002zm.023 2.514H42.499a.166.166 0 0 1-.166-.166v-.002c0-.094.074-.168.168-.168h4.35c.094 0 .167.074.167.168a.169.169 0 0 1-.167.168zm-25.736 6.926-1.672.429-.265-.419.677-.801-1.022.255-.265-.419 1.103-1.328.255.406-.71.841 1.072-.268.228.362-.717.845 1.079-.275.238.372zm.452 2.347-.261.245-.905-.959 1.196-1.126.885.939-.261.245-.566-.603-.208.191.499.53-.251.238-.499-.53-.218.204.59.627zm1.532-.345.365.288-.791.999.613.486-.228.288-.979-.774 1.019-1.287zm1.106 2.708a.8.8 0 0 1-.131-.422v-.001a.836.836 0 0 1 .117-.442.836.836 0 0 1 .318-.325.784.784 0 0 1 .435-.104h-.002c.154.003.308.05.456.134.131.074.235.164.315.271s.127.221.147.349l-.392.084a.492.492 0 0 0-.476-.426c-.08 0-.154.02-.221.064a.535.535 0 0 0-.169.182l-.001.003c-.047.08-.07.161-.07.241s.017.154.06.224c.04.067.1.124.178.168a.483.483 0 0 0 .432.023l.124.379a.77.77 0 0 1-.379.05h.004a.994.994 0 0 1-.392-.131.918.918 0 0 1-.352-.322zm2.252 1.113a.838.838 0 0 1-.204-.399c-.03-.148-.017-.298.037-.453s.141-.278.261-.372a.847.847 0 0 1 .404-.177l.005-.001c.154-.023.315-.003.479.054a.985.985 0 0 1 .402.261l.001.001c.104.117.174.248.204.399s.017.298-.037.453-.141.278-.261.372c-.117.097-.255.154-.409.178s-.315.003-.476-.054a.984.984 0 0 1-.405-.261zm.764-.08a.427.427 0 0 0 .208-.101c.06-.054.107-.124.137-.211s.04-.171.027-.251-.044-.151-.094-.208a.465.465 0 0 0-.188-.13l-.003-.001a.444.444 0 0 0-.234-.02h.003c-.077.013-.144.047-.208.101s-.107.124-.137.211a.516.516 0 0 0-.027.252c.023.161.134.29.282.341l.003.001c.077.027.154.03.231.017zm3.026 1.116.127-.861-.526.637-.204-.03-.312-.741-.131.838-.426-.067.251-1.622.379.057.426 1.026.7-.851.379.057-.245 1.623-.419-.064zm2.878-.275.007.359-1.317.027-.034-1.643 1.287-.027.007.359-.828.017.007.278.731-.017.007.349-.73.017.007.302.858-.02zm2.463-1.324-.486.131-.097-.355 1.421-.382.097.355-.486.131.332 1.23-.449.121-.332-1.23zm2.47.439a.809.809 0 0 1-.422-.144.8.8 0 0 1-.288-.349.831.831 0 0 1-.074-.454v.004a.805.805 0 0 1 .172-.414l-.001.002c.097-.124.221-.221.379-.295s.315-.104.472-.094c.157.01.298.057.422.144.127.087.221.201.288.352s.091.298.074.449a.805.805 0 0 1-.172.414l.001-.002a1 1 0 0 1-.382.295.976.976 0 0 1-.469.091zm.493-.59a.436.436 0 0 0 .077-.218.505.505 0 0 0-.047-.248.483.483 0 0 0-.153-.197l-.001-.001a.426.426 0 0 0-.213-.084h-.002a.437.437 0 0 0-.23.041l.003-.001a.419.419 0 0 0-.18.146l-.001.001a.433.433 0 0 0-.077.216v.001c-.007.084.01.164.047.248s.091.151.154.198a.427.427 0 0 0 .442.044.419.419 0 0 0 .18-.146l.001-.001zm3.119-1.542a.837.837 0 0 1-.451-.025l.006.002c-.144-.047-.268-.134-.372-.258a.839.839 0 0 1-.201-.54c0-.114.023-.222.066-.32l-.002.005c.057-.144.154-.275.288-.386s.275-.184.429-.218a.803.803 0 0 1 .446.023c.15.053.275.142.371.257l.001.001a.835.835 0 0 1 .201.54.809.809 0 0 1-.066.319l.002-.005a.964.964 0 0 1-.288.386.94.94 0 0 1-.423.217l-.006.001zm.316-.701a.442.442 0 0 0-.097-.453.528.528 0 0 0-.201-.151.399.399 0 0 0-.23-.023h.003a.437.437 0 0 0-.212.101h.001a.442.442 0 0 0-.151.421v-.003c.017.081.054.154.114.225s.127.121.201.151a.408.408 0 0 0 .231.023h-.003a.441.441 0 0 0 .212-.101h-.001a.411.411 0 0 0 .134-.191zm1.534-1.153c-.188.02-.375-.05-.563-.208l-.697-.583.298-.355.687.573c.201.168.369.171.503.013.131-.158.097-.322-.104-.49l-.687-.573.295-.352.697.583c.188.157.288.328.305.52s-.054.379-.211.563c-.164.188-.335.288-.523.308zm1.612-2.688-.127.218.375.221-.235.402-1.418-.828.379-.65a.943.943 0 0 1 .258-.298.573.573 0 0 1 .31-.114h.002c.107-.007.218.023.322.084s.178.137.228.228a.595.595 0 0 1 .06.312l.623-.04-.251.429-.526.037zm-.56-.58c-.06.02-.114.074-.164.154l-.131.225.416.241.131-.224c.047-.084.067-.154.054-.218-.01-.064-.05-.114-.117-.151s-.127-.047-.188-.027zM18.716 7.466c.02.164.1.342.248.53.007.003.003.013-.007.027s-.02.017-.027.013c-.087-.08-.201-.181-.342-.308a6.333 6.333 0 0 0-.307-.26l-.014-.011c-.013-.01-.013-.02-.003-.034s.02-.017.034-.007c.054.04.131-.007.231-.144.164-.205.349-.443.56-.724.107-.144.218-.295.332-.459l.181-.251c.07-.091.114-.164.134-.214s.017-.097-.01-.138c-.007-.01-.007-.02 0-.034.01-.013.02-.013.027-.007.096.087.202.178.31.266l.016.012c.147.121.268.218.362.288.007.007.007.014-.003.027s-.02.02-.027.017c-.204-.114-.385-.161-.54-.137s-.292.111-.405.265a.547.547 0 0 0-.094.164.138.138 0 0 0 .014.115v-.001a.668.668 0 0 0 .131.124l1.676 1.257c.074.057.134.09.181.1a.15.15 0 0 0 .134-.037c.044-.034.104-.101.174-.194.007-.007.017-.007.03.007.013.01.02.02.013.027-.064.084-.114.151-.154.198l-.228.295-.208.285a6.851 6.851 0 0 1-.154.214c-.003.003-.013.003-.027-.01s-.02-.02-.017-.024a.964.964 0 0 0 .137-.225c.02-.053.02-.1-.003-.144s-.07-.091-.144-.144l-1.682-1.26a.444.444 0 0 0-.151-.084c-.037-.01-.074-.003-.111.02s-.077.067-.127.131a.652.652 0 0 0-.137.469zm5.901-2.464c.01.013.013.024.007.03a3.313 3.313 0 0 1-.194.158l-.255.211-.292.252c-.04.037-.094.087-.164.144-.007.007-.017.003-.027-.014-.01-.013-.013-.023-.007-.03.087-.074.148-.134.178-.178a.148.148 0 0 0 .023-.136v.001a.568.568 0 0 0-.111-.174l-.677-.801-1.19 1.006.677.801c.057.07.11.114.151.138.04.02.087.02.137 0 .05-.024.121-.07.208-.144.003-.003.013 0 .023.013.013.013.017.023.01.027a2.74 2.74 0 0 1-.188.151l-.292.241-.251.218c-.04.04-.104.094-.181.158-.003.003-.013 0-.023-.013s-.013-.024-.01-.027a.76.76 0 0 0 .168-.174.148.148 0 0 0 .023-.136v.001a.466.466 0 0 0-.111-.171l-1.357-1.606c-.06-.07-.111-.114-.151-.134s-.087-.02-.138 0a.83.83 0 0 0-.198.134c-.003.003-.013 0-.023-.013-.013-.013-.017-.024-.01-.027l.188-.151c.11-.084.194-.154.255-.204.104-.088.195-.17.285-.254l-.003.003.181-.158c.003-.003.013 0 .023.013s.013.024.01.027a.802.802 0 0 0-.171.181c-.03.047-.037.094-.023.141s.05.104.107.174l.6.707 1.19-1.006-.6-.707a.609.609 0 0 0-.151-.138.172.172 0 0 0-.142-.003h.001a.855.855 0 0 0-.208.141c-.007.007-.017.003-.027-.013-.013-.013-.013-.023-.007-.03l.168-.138.302-.241c.064-.054.144-.127.248-.221l.188-.164c.007-.007.017-.003.027.014.013.013.013.023.007.03a.86.86 0 0 0-.168.174.159.159 0 0 0-.02.135v-.001c.013.044.05.101.107.171l1.357 1.606c.057.07.111.114.151.137a.134.134 0 0 0 .134 0 .935.935 0 0 0 .198-.137c.017-.01.027-.007.037.007zm1.665-1.633a.06.06 0 0 1 .027-.007c.01 0 .013.003.017.003.084.218.168.409.258.58.01.02.017.04.013.054s-.017.027-.04.04l-1.739.932c-.007.003-.017 0-.023-.017-.01-.017-.01-.027 0-.03a.808.808 0 0 0 .188-.128.158.158 0 0 0 .044-.11l-.001-.015v.001a.522.522 0 0 0-.074-.191l-.992-1.854a.588.588 0 0 0-.117-.164.156.156 0 0 0-.128-.034.817.817 0 0 0-.208.084c-.007.003-.017 0-.023-.017-.01-.017-.01-.027 0-.03l1.666-.892c.027-.014.047-.01.06.013l.288.516c.003.007-.003.014-.017.023s-.023.013-.03.007c-.228-.272-.493-.322-.801-.158l-.161.087c-.097.05-.154.104-.178.161-.02.057-.01.127.034.208l.439.818.385-.208c.295-.158.389-.335.282-.533-.003-.007 0-.017.017-.023s.023-.007.027 0l.184.352.104.188c.05.084.09.151.12.205.003.007-.003.013-.02.02-.017.01-.027.01-.027.007-.124-.232-.335-.265-.633-.104l-.392.198.486.908c.047.087.097.141.147.158.054.017.121.003.204-.044l.198-.104c.358-.191.493-.486.402-.885-.003-.007.003-.01.013-.017zM27.559.928c-.091.138-.141.325-.151.563 0 .007-.007.01-.023.013s-.027 0-.027-.007c-.013-.117-.037-.268-.064-.452s-.05-.322-.074-.416c-.003-.013.003-.023.02-.027s.027 0 .03.017c.017.064.104.077.271.04.255-.05.553-.114.891-.195.174-.04.359-.087.553-.137l.298-.074c.114-.027.194-.054.241-.081s.074-.064.08-.111c0-.013.007-.02.023-.024.013-.003.023 0 .027.013a13.145 13.145 0 0 0 .16.878c.003.01-.003.017-.02.02s-.027 0-.034-.007c-.084-.221-.191-.372-.325-.452-.134-.084-.295-.1-.479-.06a.593.593 0 0 0-.178.064.123.123 0 0 0-.06.097.696.696 0 0 0 .02.181l.473 2.042c.02.091.047.154.074.195.027.037.07.057.124.06.057.003.144-.01.258-.037.01-.003.013.007.02.023.003.017 0 .027-.007.03l-.245.054-.365.08-.345.084c-.06.017-.147.04-.255.064-.007 0-.01-.007-.013-.023s-.003-.027.003-.027c.114-.027.198-.054.248-.08s.08-.064.09-.111.003-.114-.017-.204L28.305.873c-.017-.077-.037-.131-.06-.164s-.057-.05-.097-.057a.477.477 0 0 0-.181.02.578.578 0 0 0-.412.255zm5.731 1.868c0 .017-.007.027-.023.027-.057.003-.151.003-.278 0s-.221 0-.278 0c-.077.003-.164.01-.268.017-.104.01-.181.017-.241.017-.013 0-.02-.01-.02-.027s.007-.027.017-.027a.484.484 0 0 0 .191-.037.097.097 0 0 0 .058-.088l-.001-.013v.001a.694.694 0 0 0-.084-.228l-.526-.979-.821.027-.322.798a.583.583 0 0 0-.05.248.28.28 0 0 0 .12.238c.077.05.184.077.322.07.013 0 .023.007.023.027 0 .017-.007.027-.02.027a3.07 3.07 0 0 1-.238 0c-.114-.003-.214 0-.302 0-.08.003-.178.01-.285.02-.097.01-.178.017-.241.017-.013 0-.023-.007-.023-.027 0-.017.007-.027.023-.027a.436.436 0 0 0 .211-.057.534.534 0 0 0 .161-.184c.054-.087.11-.218.181-.392l.898-2.233c.013-.003.027-.01.05-.01.02 0 .034.003.037.013l1.19 2.206c.114.214.208.362.282.439s.151.114.235.111c.013 0 .02.007.023.027zm-2.226-1.422.717-.024-.402-.751-.315.774zm3.214-.415a.846.846 0 0 0 .171.255c.07.077.171.167.298.278.137.121.245.221.322.305.075.083.137.179.182.285l.002.007a.663.663 0 0 1 .033.365.72.72 0 0 1-.185.389v-.001c-.097.107-.224.181-.382.225s-.328.05-.513.02a1.616 1.616 0 0 1-.389-.115l.01.004a.975.975 0 0 1-.285-.171.11.11 0 0 1-.03-.094l.084-.687v-.003c.003-.013.01-.017.027-.017.013 0 .023.007.023.02.057.265.137.486.241.664.1.178.251.285.449.315.127.02.241.003.338-.054s.161-.167.188-.332a.712.712 0 0 0-.03-.359.872.872 0 0 0-.175-.282l.001.001a5.535 5.535 0 0 0-.308-.298 4.037 4.037 0 0 1-.298-.292.887.887 0 0 1-.165-.266l-.002-.006a.65.65 0 0 1-.033-.349l-.001.004c.027-.154.091-.278.194-.372s.231-.154.379-.184a1.146 1.146 0 0 1 .457-.006l-.007-.001c.1.017.201.044.298.077.097.037.181.074.245.114.027.013.04.027.047.044a.092.092 0 0 1 .008.038l-.002.017V.496l-.084.613c0 .01-.01.013-.027.017s-.027-.003-.027-.017a1.968 1.968 0 0 0-.166-.545l.005.012c-.077-.164-.214-.262-.416-.295-.134-.02-.248 0-.339.064s-.147.164-.171.298a.528.528 0 0 0 .03.315zm2.346-.044c-.151.067-.295.198-.432.392-.003.007-.01.007-.027 0s-.02-.013-.02-.02l.194-.416c.048-.096.103-.225.153-.356l.011-.033c.007-.013.017-.02.03-.013.017.007.02.017.017.03-.023.064.047.124.204.181a25.01 25.01 0 0 0 1.39.506l.292.1c.107.04.191.06.245.064s.097-.013.127-.05c.007-.01.017-.013.03-.007s.02.013.017.024c-.04.084-.097.218-.171.392-.034.07-.091.213-.146.357l-.025.075c-.003.01-.013.01-.027.003-.017-.007-.023-.013-.023-.023.05-.232.04-.416-.027-.557s-.191-.245-.372-.308a.567.567 0 0 0-.184-.044h-.003a.13.13 0 0 0-.101.047.483.483 0 0 0-.08.161l-.71 1.971c-.03.087-.047.154-.044.201s.027.084.074.117.124.07.238.11c.01.003.01.013.003.03s-.013.023-.023.02a4.98 4.98 0 0 1-.277-.106l.042.016-.349-.131-.335-.117c-.06-.02-.144-.047-.251-.084-.007-.003-.007-.013 0-.03s.013-.023.017-.023c.111.04.194.064.255.067.057.003.104-.01.137-.044s.067-.094.097-.181l.714-1.981c.027-.074.04-.131.037-.171s-.022-.076-.05-.1A.637.637 0 0 0 37.107.9a.663.663 0 0 0-.483.013zm3.555 3.718c.007.003.013.01.017.02s.007.014.003.017a4.82 4.82 0 0 0-.362.52c-.013.02-.023.034-.037.037s-.03 0-.054-.013l-1.699-1.002c-.007-.003-.007-.014.003-.03s.017-.02.027-.017a.705.705 0 0 0 .204.094.157.157 0 0 0 .128-.027.65.65 0 0 0 .124-.161l1.069-1.813c.047-.077.074-.141.08-.184s-.007-.087-.04-.127-.094-.084-.178-.134c-.007-.003-.007-.013.003-.03s.017-.02.027-.017l1.629.962c.027.017.034.034.017.057l-.291.513c-.003.007-.013.003-.027 0-.017-.007-.023-.013-.02-.023.114-.335.02-.59-.282-.768l-.157-.091c-.094-.057-.171-.077-.228-.067-.06.01-.114.057-.161.138l-.472.798.375.221c.288.171.489.158.6-.037.003-.007.013-.007.03 0 .013.01.02.017.013.023l-.204.339-.104.188c-.044.087-.08.158-.111.208-.003.007-.013.003-.027-.007-.017-.01-.023-.017-.02-.02.131-.225.054-.422-.238-.597l-.372-.218-.523.889c-.05.087-.07.154-.057.208s.06.104.144.154l.191.114c.349.208.67.168.965-.117-.003-.003.003 0 .013.003zm2.199 2.799c-.013.014-.023.014-.037.003a10.41 10.41 0 0 1-.201-.191 7.039 7.039 0 0 0-.197-.19l-.004-.004c-.057-.05-.124-.107-.204-.174-.08-.064-.141-.117-.184-.154-.01-.007-.007-.02.003-.034.013-.013.023-.017.034-.007.064.06.121.094.164.107a.097.097 0 0 0 .11-.03.625.625 0 0 0 .097-.225l.302-1.069-.61-.553-.788.349a.559.559 0 0 0-.208.144c-.07.077-.097.164-.077.255s.08.181.181.275c.01.01.01.024 0 .037-.013.014-.023.014-.034.003a5.453 5.453 0 0 1-.171-.164c-.069-.069-.139-.136-.209-.203l-.005-.005a4.256 4.256 0 0 0-.208-.176l-.01-.008a3.053 3.053 0 0 1-.184-.154c-.01-.01-.01-.024 0-.037.013-.013.023-.017.034-.007.064.057.127.094.191.107s.147.007.245-.02a3.47 3.47 0 0 0 .402-.154l2.198-.976c.01-.003.023.003.04.017s.02.027.017.034l-.68 2.414a2.332 2.332 0 0 0-.104.51c0 .107.027.188.091.245.017.01.017.024.007.037zm-.61-2.568.533.483.231-.818-.764.335zm2.617 1.11c-.164-.027-.355 0-.576.087-.003.003-.013 0-.023-.013s-.01-.024-.003-.027c.101-.06.231-.141.392-.241.157-.1.275-.178.348-.235.013-.01.023-.007.034.007s.01.024-.003.034c-.054.04-.03.127.07.265a23.28 23.28 0 0 0 .884 1.19l.188.245c.07.094.124.154.167.188s.087.044.134.027c.01-.003.023 0 .03.01.01.013.007.02 0 .03a12.702 12.702 0 0 0-.738.5c-.007.007-.017 0-.027-.013s-.013-.024-.007-.03c.167-.164.265-.325.285-.479s-.023-.312-.141-.463c-.05-.067-.094-.114-.131-.137s-.074-.03-.114-.017-.09.04-.157.091l-1.679 1.254c-.074.057-.124.104-.147.144s-.023.087-.003.141c.02.054.067.127.138.221.007.007 0 .017-.013.027s-.023.013-.03.007c-.064-.084-.111-.154-.148-.205l-.218-.302-.214-.282c-.04-.05-.094-.117-.161-.208-.003-.003.003-.014.017-.024s.023-.013.027-.01c.07.094.127.161.174.195.047.037.091.05.138.037a.55.55 0 0 0 .181-.097l1.686-1.257a.457.457 0 0 0 .124-.121.14.14 0 0 0 .013-.112v.001a.497.497 0 0 0-.091-.161.603.603 0 0 0-.405-.265z" style="fill:var(--color5, #e1b168)"/></symbol><symbol id="icon-menus" viewBox="0 0 32 32"><path d="M32 0H0v32h32V0z"/></symbol><symbol id="icon-open" viewBox="0 0 32 32"><path d="M32 0H0v32h32V0z"/></symbol><symbol id="icon-quotes" viewBox="0 0 40 32"><path d="M6.723 28.213a13.332 13.332 0 0 0 4.882-3.638l.017-.02c1.395-1.637 2.235-3.307 2.52-5.008.16-.899.237-1.669.237-2.312 0-.736-.08-1.347-.24-1.829-1.488 1.573-3.373 2.36-5.656 2.36s-4.136-.675-5.563-2.021C1.493 14.396.779 12.534.779 10.158c0-2.248.763-4.077 2.283-5.488 1.491-1.413 3.392-2.12 5.707-2.12 3.168 0 5.483 1.155 6.941 3.467.667.995 1.189 2.213 1.568 3.659.381 1.477.571 2.987.571 4.528 0 3.371-.853 6.453-2.565 9.245s-4.267 4.976-7.656 6.549l-.904-1.784zm20.064 0a13.332 13.332 0 0 0 4.882-3.638l.017-.02c1.395-1.637 2.235-3.307 2.52-5.008.16-.899.237-1.669.237-2.312 0-.736-.08-1.347-.24-1.829-1.488 1.573-3.373 2.36-5.653 2.36-2.285 0-4.139-.675-5.565-2.021-1.427-1.349-2.139-3.211-2.139-5.587 0-2.248.76-4.077 2.28-5.488 1.493-1.413 3.392-2.12 5.707-2.12 3.171 0 5.483 1.155 6.941 3.467.667.995 1.189 2.213 1.571 3.659.379 1.477.568 2.987.568 4.528 0 3.371-.853 6.453-2.565 9.245s-4.264 4.976-7.653 6.549l-.907-1.784z"/></symbol><symbol id="icon-reserv" viewBox="0 0 32 32"><path d="M31.897.103H.102v31.795h31.795V.103z"/></symbol></defs></svg>